<?xml version="1.0" encoding="utf-8"?>
<!-- Generator: Adobe Illustrator 19.0.0, SVG Export Plug-In . SVG Version: 6.00 Build 0)  -->
<svg version="1.1" id="Layer_1" xmlns="http://www.w3.org/2000/svg" xmlns:xlink="http://www.w3.org/1999/xlink" x="0px" y="0px"
	 viewBox="0 0 900 400" style="enable-background:new 0 0 900 400;" xml:space="preserve">
<style type="text/css">
	.st0{fill:#24AE5F;}
</style>
<g id="XMLID_28_">
	<path id="XMLID_3_" d="M19,253.1c0.9,0.7,1.9,1.3,2.9,1.9l-3.8,9.5l11.7-6.5c1.3,0.3,2.5,0.4,3.8,0.6l-2.4,6l10.5-5.8h5l-2.3,5.8
		l10.5-5.8h5l-2.3,5.8l10.5-5.8h5l-2.3,5.8l10.5-5.8h5l-2.3,5.8l10.5-5.8h5l-2.3,5.8l10.5-5.8h5l-2.3,5.8l10.5-5.8h5l-2.3,5.8
		l10.5-5.8h5l-2.3,5.8l10.5-5.8h5l-2.3,5.8l10.5-5.8h5l-2.3,5.8l10.5-5.8h5l-2.3,5.8l10.5-5.8h5l-2.3,5.8l10.7-6
		c1.8-0.2,3.5-0.5,5.2-0.9l-2.8,6.9l15.1-8.4l-3.3-3c1.3-1,2.6-2.1,3.8-3.3l1.6,6.9l6.4-13.1l8.9-13.7l-7.5,1l2-4.9l-2.4,0.1
		l3.9-12.6l-6.2,4.1c-0.4-1.1-0.9-2.2-1.5-3.2L221,198l-4.9,7.9c-1.3-1.1-2.6-2.1-4.1-3l4.4-11.1l-13.5,7.5
		c-0.8-0.2-1.7-0.3-2.5-0.4l2.8-7.1l-12.4,6.9h-3.5l2.8-6.9l-12.4,6.9h-3.5l2.8-6.9l-12.4,6.9H161l2.8-6.9l-2,1.1v-3.4l38.9,0.3
		c4.4,0,7.9-3.6,7.9-8.1l-0.7-16.3l86.8-84.4c0.6-0.6,1.1-1.2,1.6-2c0,0,0-0.1,0.1-0.1l8.7,23.2l0.2-0.3l23.7,63.5
		c-4,1.4-3.9,5.5-3,10.4l6.4,38.1c0.9,5.4,1.8,14.1,1.8,14.1l-13.2,4.9l0.4,5.5c0,0,43-3.8,53.4-24.5c1.3-1.6,1.7-6,1.8-8.1
		c0.2-0.6-5.5-34.3-5.5-34.3c-0.8-4.9-7.6-10.6-13.6-10.9l-3.4-27.5c-0.3-2.2-1.4-4-3.2-5.1c-0.8-0.5-1.7-0.7-2.6-0.8l-9.1-20.6
		c0.3-0.2,0.5-0.4,0.5-0.5l-2.6-5.9l0.2-0.1c0.8-0.4,1.3-1,1.1-1.5L324,66.3c0.2-0.3,0.4-0.6,0.4-0.8c0.1-0.6,0.2-1.2,0.2-1.8
		c0-1.3-0.4-2.6-1.1-3.8l-16.5-22.6c-1.3-2.1-3.4-3-5.5-2.8c-1.5-0.2-3,0.1-4.3,1.1c-0.5,0.4-1.1,3.4-1.6,7.4l-21.4,10.4
		c-1.1,0.7-2.1,1.6-2.7,2.8c-0.3,0.5-0.5,1.1-0.7,1.7c-0.1,0.5,0,1.5,0.4,2.6L245.8,79c-0.4-0.5-0.7-0.7-0.8-0.6l-8,5.8l-0.2-0.3
		c-0.8-1.1-1.9-1.7-2.5-1.2l-28.6,20.8l-0.9-22.3c0-4.5-3.6-8.1-7.9-8.1h-68.8c-4.4,0-7.9,3.6-7.9,8.1l-2.4,51.3H44.9
		c-4.4,0-7.9,3.6-7.9,8.1v40.2c0,4.5,3.6,8.1,7.9,8.1l25.4,0.2v3.6l-11,6.1h-3.5l2.8-6.9l-12.4,6.9h-3.5l2.7-6.9l-12.7,7.1
		c-1.2,0.1-2.3,0.4-3.5,0.6l3.1-7.7l-15.1,8.4l3.3,3c-1.4,0.9-2.7,1.9-4,3l-0.2-8.5L5.7,211.7l5.1,1.7c-1.1,1.8-1.9,3.7-2.6,5.8
		l-5.4-6.7l0,17.6l3.9-1.4v0c0,1.9,0.2,3.8,0.5,5.6L0.1,231l7.6,15.8l3-3.1c0.6,1.1,1.3,2.1,2.1,3.1l-9.8,3.2l16,6.4L19,253.1z
		 M314.6,73.6c1-0.6,2.3-1.4,3.6-2.2l13.5,30.6c0.2,0.3,0.6,0.5,1.2,0.4l2.6,6c0,0.1,0.2,0.1,0.4,0l8.6,19.6
		c-0.2,0.1-0.4,0.2-0.5,0.3c0,0-1,0.6-2.2,1.2C337.1,119.8,319.1,82.4,314.6,73.6z M294.3,55.3c0-3.1,2.5-5.6,5.5-5.6
		c3,0,5.5,2.5,5.5,5.6c0,3.1-2.5,5.6-5.5,5.6C296.8,60.9,294.3,58.4,294.3,55.3z M209.2,115.1l31.6-22.9c0.5-0.3,0.5-1.1,0.2-2
		l8.1-5.9c0.1-0.1,0-0.3-0.1-0.6l23.6-17.1c0.6,1.3,1.3,2.8,2,4.1c-11.2,8.4-54.8,44-61.9,49c-1-1.5-2-3.2-2-3.2
		C210.2,116,209.7,115.5,209.2,115.1z M174.8,228.1c0-10.5,8.3-19,18.6-19c10.3,0,18.6,8.5,18.6,19c0,10.5-8.3,19-18.6,19
		C183.1,247.1,174.8,238.6,174.8,228.1z M127.5,126.9l1.8-37.4c0-4.9,3.9-8.8,8.6-8.8h60.5c0,0.2,0.1,0.4,0.1,0.6l3.5,88.7
		c0,3.9-3.1,7.1-7,7.1l-28.5-0.2l-1.7-42.9c0-4-3.1-7.2-7-7.2H127.5z M83.8,164.4c0-0.4,0.1-0.7,0.3-1c0.2-0.6,0.8-0.9,1.4-0.9h22.7
		c0.8,0,1.5,0.7,1.5,1.5c0,0.4-0.1,0.7-0.4,1c-0.2,0.5-0.8,0.9-1.4,0.9H85.2C84.4,166,83.8,165.3,83.8,164.4z M83.8,159.3
		c0-0.4,0.1-0.7,0.4-1c0.2-0.6,0.8-0.9,1.4-0.9h22.7c0.8,0,1.5,0.7,1.5,1.5c0,0.4-0.1,0.7-0.4,1c-0.2,0.6-0.8,0.9-1.4,0.9H85.2
		C84.4,160.8,83.8,160.1,83.8,159.3z M83.8,154.1c0-0.4,0.1-0.7,0.4-1c0.2-0.6,0.8-0.9,1.4-0.9h22.7c0.8,0,1.5,0.7,1.5,1.5
		c0,0.4-0.1,0.7-0.4,1c-0.2,0.6-0.8,0.9-1.4,0.9H85.2C84.4,155.6,83.8,154.9,83.8,154.1z M83.8,148.9c0-0.4,0.1-0.7,0.3-1
		c0.2-0.5,0.8-0.9,1.4-0.9h22.7c0.8,0,1.5,0.7,1.5,1.5c0,0.4-0.1,0.7-0.4,1c-0.2,0.6-0.8,0.9-1.4,0.9H85.2
		C84.4,150.5,83.8,149.8,83.8,148.9z M76.6,148.6c0,0.4-0.1,0.7-0.4,1c-0.2,0.6-0.8,0.9-1.4,0.9H52.2c-0.8,0-1.5-0.7-1.5-1.5
		c0-0.4,0.1-0.7,0.4-1c0.2-0.6,0.8-0.9,1.4-0.9h22.7C76,147,76.6,147.7,76.6,148.6z M76.6,153.7c0,0.4-0.1,0.7-0.4,1
		c-0.2,0.6-0.8,0.9-1.4,0.9H52.2c-0.8,0-1.5-0.7-1.5-1.5c0-0.4,0.1-0.7,0.4-1c0.2-0.6,0.8-0.9,1.4-0.9h22.7
		C76,152.2,76.6,152.9,76.6,153.7z M76.6,158.9c0,0.4-0.1,0.7-0.4,1c-0.2,0.6-0.8,0.9-1.4,0.9H52.2c-0.8,0-1.5-0.7-1.5-1.5
		c0-0.4,0.1-0.7,0.4-1c0.2-0.6,0.8-0.9,1.4-0.9h22.7C76,157.4,76.6,158,76.6,158.9z M52.2,166c-0.8,0-1.5-0.7-1.5-1.5
		c0-0.4,0.1-0.7,0.4-1c0.2-0.6,0.8-0.9,1.4-0.9h22.7c0.8,0,1.5,0.7,1.5,1.5c0,0.4-0.1,0.7-0.4,1c-0.2,0.5-0.8,0.9-1.4,0.9H52.2z
		 M69,198.8l1.4-3.4v0.4c0,1.2,0.5,2.3,1.3,3H69z M23.3,228.1c0-10.5,8.3-19,18.6-19c10.3,0,18.6,8.5,18.6,19c0,10.5-8.3,19-18.6,19
		C31.6,247.1,23.3,238.6,23.3,228.1z M177.8,228.1c0,8.8,7,15.9,15.6,15.9c8.6,0,15.6-7.1,15.6-15.9c0-8.8-7-15.9-15.6-15.9
		C184.8,212.2,177.8,219.3,177.8,228.1z M26.3,228.1c0,8.8,7,15.9,15.6,15.9c8.6,0,15.6-7.1,15.6-15.9c0-8.8-7-15.9-15.6-15.9
		C33.3,212.2,26.3,219.3,26.3,228.1z M215.6,203.6l0.6-0.9v-6.4l-2.4,6C214.4,202.7,215,203.2,215.6,203.6z"/>
	<g id="XMLID_27_">
		<path id="XMLID_26_" class="st0" d="M299,241.3c0,9.4-7.7,17-17,17h-22.7c-9.4,0-17-7.7-17-17v-22.7c0-9.4,7.7-17,17-17h11.4v-7.1
			h-18.4c-9.4,0-17,7.7-17,17v36.9c0,9.4,7.7,17,17,17H289c9.4,0,17-7.7,17-17v-18.4H299V241.3z"/>
		
			<rect id="XMLID_24_" x="243.5" y="229.9" transform="matrix(0.7184 0.6956 -0.6956 0.7184 237.5183 -115.1643)" class="st0" width="35" height="11.8"/>
		<g id="XMLID_2_">
			
				<rect id="XMLID_25_" x="263.9" y="211.4" transform="matrix(-0.6956 0.7184 -0.7184 -0.6956 656.3336 156.4702)" class="st0" width="62.2" height="11.8"/>
		</g>
	</g>
	<g id="XMLID_29_">
		<path id="XMLID_30_" d="M59.1,282.7H41.2v48.7h-12v-48.7H11.5v-9.7h47.6V282.7z"/>
		<path id="XMLID_32_" d="M59.6,309.2c0-4.3,0.8-8.1,2.5-11.5c1.7-3.4,4-6,7.2-7.8c3.1-1.8,6.7-2.8,10.8-2.8c2.7,0,5.2,0.4,7.5,1.2
			l2.8-5.7h6.5l-4.1,8.5c5.3,4,8,10.3,8,19.1c0,6.7-1.9,12-5.6,16c-3.7,4-8.7,6-15,6c-2.5,0-4.9-0.3-7.1-1l-2.9,5.9h-6.5l4.1-8.5
			C62.4,324.6,59.6,318.2,59.6,309.2z M71.2,310c0,3.5,0.5,6.3,1.6,8.4l10.4-21.3c-1-0.4-2-0.6-3.2-0.6c-2.8,0-5,1.1-6.6,3.3
			C72,302,71.2,305.4,71.2,310z M89.1,309.2c0-3-0.5-5.7-1.5-7.9l-10.3,21c0.8,0.3,1.7,0.4,2.8,0.4c2.8,0,5-1.1,6.6-3.2
			C88.3,317.4,89.1,313.9,89.1,309.2z"/>
		<path id="XMLID_36_" d="M118.4,287.9l0.4,5c3.1-3.9,7.3-5.8,12.5-5.8c4.6,0,8,1.4,10.3,4.1c2.2,2.7,3.4,6.7,3.4,12.1v28h-11.6
			v-27.8c0-2.5-0.5-4.3-1.6-5.4c-1.1-1.1-2.8-1.7-5.3-1.7c-3.3,0-5.7,1.4-7.3,4.2v30.7h-11.6v-43.4H118.4z"/>
		<path id="XMLID_38_" d="M152,309.3c0-6.8,1.5-12.2,4.6-16.2c3-4,7.2-6,12.5-6c4.2,0,7.7,1.6,10.5,4.7v-22.1h11.6v61.6h-10.5
			l-0.6-4.6c-2.9,3.6-6.6,5.4-11.1,5.4c-5.1,0-9.2-2-12.3-6S152,316.5,152,309.3z M163.6,310.1c0,4.1,0.7,7.2,2.1,9.4
			c1.4,2.2,3.5,3.3,6.2,3.3c3.6,0,6.1-1.5,7.6-4.6V301c-1.4-3-3.9-4.6-7.5-4.6C166.4,296.5,163.6,301,163.6,310.1z"/>
		<path id="XMLID_41_" d="M220,332.1c-6.4,0-11.5-2-15.5-5.9c-4-3.9-6-9.1-6-15.6v-1.1c0-4.4,0.8-8.3,2.5-11.7s4.1-6.1,7.2-7.9
			c3.1-1.9,6.6-2.8,10.6-2.8c5.9,0,10.6,1.9,14,5.6c3.4,3.7,5.1,9.1,5.1,15.9v4.7h-27.6c0.4,2.8,1.5,5.1,3.4,6.8
			c1.9,1.7,4.3,2.6,7.2,2.6c4.5,0,8-1.6,10.5-4.9l5.7,6.4c-1.7,2.5-4.1,4.4-7.1,5.8C226.9,331.4,223.6,332.1,220,332.1z
			 M218.7,296.5c-2.3,0-4.2,0.8-5.6,2.3c-1.4,1.6-2.3,3.8-2.7,6.7h16.1v-0.9c-0.1-2.6-0.7-4.6-2.1-6
			C223.1,297.2,221.2,296.5,218.7,296.5z"/>
		<path id="XMLID_44_" d="M268.8,298.8c-1.6-0.2-3-0.3-4.2-0.3c-4.4,0-7.3,1.5-8.6,4.5v28.4h-11.6v-43.4h10.9l0.3,5.2
			c2.3-4,5.5-6,9.7-6c1.3,0,2.5,0.2,3.6,0.5L268.8,298.8z"/>
		<path id="XMLID_46_" d="M305.7,287.9l0.4,4.9c3.1-3.8,7.2-5.7,12.5-5.7c5.6,0,9.4,2.2,11.5,6.6c3-4.4,7.4-6.6,13-6.6
			c4.7,0,8.2,1.4,10.5,4.1c2.3,2.7,3.4,6.9,3.4,12.4v27.7h-11.6v-27.7c0-2.5-0.5-4.3-1.4-5.4c-1-1.1-2.7-1.7-5.1-1.7
			c-3.5,0-5.9,1.7-7.2,5l0,29.9h-11.6v-27.7c0-2.5-0.5-4.3-1.5-5.5c-1-1.1-2.7-1.7-5.1-1.7c-3.3,0-5.7,1.4-7.1,4.1v30.8h-11.6v-43.4
			H305.7z"/>
		<path id="XMLID_48_" d="M391.1,331.3c-0.5-1-0.9-2.3-1.2-3.9c-2.8,3.1-6.5,4.7-10.9,4.7c-4.3,0-7.8-1.2-10.6-3.7
			c-2.8-2.5-4.2-5.6-4.2-9.3c0-4.6,1.7-8.1,5.1-10.6c3.4-2.5,8.3-3.7,14.8-3.7h5.3v-2.5c0-2-0.5-3.6-1.5-4.8c-1-1.2-2.7-1.8-4.9-1.8
			c-2,0-3.5,0.5-4.6,1.4c-1.1,0.9-1.7,2.2-1.7,3.8h-11.6c0-2.5,0.8-4.8,2.3-7s3.7-3.8,6.6-5c2.8-1.2,6-1.8,9.5-1.8
			c5.3,0,9.6,1.3,12.7,4c3.1,2.7,4.7,6.5,4.7,11.3v18.8c0,4.1,0.6,7.2,1.7,9.3v0.7H391.1z M381.5,323.2c1.7,0,3.3-0.4,4.7-1.1
			s2.5-1.8,3.2-3.1v-7.5h-4.3c-5.8,0-8.9,2-9.3,6l0,0.7c0,1.4,0.5,2.6,1.5,3.6C378.4,322.8,379.8,323.2,381.5,323.2z"/>
		<path id="XMLID_51_" d="M433.5,319.3c0-1.4-0.7-2.5-2.1-3.3s-3.7-1.5-6.8-2.2c-10.3-2.2-15.5-6.6-15.5-13.2c0-3.9,1.6-7.1,4.8-9.6
			c3.2-2.6,7.4-3.9,12.5-3.9c5.5,0,9.9,1.3,13.2,3.9c3.3,2.6,5,6,5,10.1h-11.6c0-1.7-0.5-3-1.6-4.1c-1.1-1.1-2.7-1.6-5-1.6
			c-2,0-3.5,0.4-4.5,1.3c-1.1,0.9-1.6,2-1.6,3.4c0,1.3,0.6,2.3,1.8,3.1c1.2,0.8,3.3,1.5,6.2,2c2.9,0.6,5.3,1.2,7.3,1.9
			c6.1,2.2,9.2,6.1,9.2,11.7c0,4-1.7,7.2-5.1,9.6c-3.4,2.4-7.8,3.7-13.2,3.7c-3.6,0-6.9-0.6-9.7-1.9c-2.8-1.3-5-3.1-6.6-5.3
			c-1.6-2.3-2.4-4.7-2.4-7.3h11c0.1,2.1,0.9,3.6,2.3,4.7c1.4,1.1,3.3,1.6,5.7,1.6c2.2,0,3.9-0.4,5-1.3
			C433,321.8,433.5,320.7,433.5,319.3z"/>
		<path id="XMLID_53_" d="M468,313.9l-4.2,4.2v13.2h-11.6v-61.6h11.6v34.1l2.2-2.9l11.1-13h13.9L475.4,306l17,25.3h-13.3L468,313.9z
			"/>
		<path id="XMLID_55_" d="M496.1,276.7c0-1.7,0.6-3.2,1.7-4.3s2.7-1.7,4.8-1.7c2,0,3.6,0.6,4.7,1.7c1.2,1.1,1.8,2.6,1.8,4.3
			c0,1.8-0.6,3.2-1.8,4.3s-2.8,1.7-4.7,1.7s-3.5-0.6-4.7-1.7S496.1,278.4,496.1,276.7z M508.4,331.3h-11.6v-43.4h11.6V331.3z"/>
		<path id="XMLID_58_" d="M528.6,287.9l0.4,5c3.1-3.9,7.3-5.8,12.5-5.8c4.6,0,8,1.4,10.3,4.1c2.2,2.7,3.4,6.7,3.4,12.1v28h-11.6
			v-27.8c0-2.5-0.5-4.3-1.6-5.4c-1.1-1.1-2.8-1.7-5.3-1.7c-3.3,0-5.7,1.4-7.3,4.2v30.7h-11.6v-43.4H528.6z"/>
		<path id="XMLID_60_" d="M589.9,326.9c-2.9,3.5-6.8,5.2-11.9,5.2c-4.7,0-8.2-1.3-10.6-4c-2.4-2.7-3.7-6.6-3.8-11.8v-28.4h11.6V316
			c0,4.5,2.1,6.8,6.2,6.8c3.9,0,6.6-1.4,8.1-4.1v-30.8h11.6v43.4h-10.9L589.9,326.9z"/>
		<path id="XMLID_62_" d="M608.1,309.3c0-6.8,1.5-12.2,4.6-16.2c3-4,7.2-6,12.5-6c4.2,0,7.7,1.6,10.5,4.7v-22.1h11.6v61.6h-10.5
			l-0.6-4.6c-2.9,3.6-6.6,5.4-11.2,5.4c-5.1,0-9.2-2-12.3-6C609.6,322.1,608.1,316.5,608.1,309.3z M619.7,310.1
			c0,4.1,0.7,7.2,2.1,9.4c1.4,2.2,3.5,3.3,6.2,3.3c3.6,0,6.1-1.5,7.6-4.6V301c-1.4-3-3.9-4.6-7.5-4.6
			C622.5,296.5,619.7,301,619.7,310.1z"/>
		<path id="XMLID_65_" d="M668.4,331.3h-11.6v-61.6h11.6V331.3z"/>
		<path id="XMLID_67_" d="M697.9,332.1c-6.4,0-11.5-2-15.5-5.9c-4-3.9-6-9.1-6-15.6v-1.1c0-4.4,0.8-8.3,2.5-11.7s4.1-6.1,7.2-7.9
			c3.1-1.9,6.6-2.8,10.6-2.8c5.9,0,10.6,1.9,14,5.6c3.4,3.7,5.1,9.1,5.1,15.9v4.7h-27.6c0.4,2.8,1.5,5.1,3.4,6.8
			c1.9,1.7,4.3,2.6,7.2,2.6c4.5,0,8-1.6,10.5-4.9l5.7,6.4c-1.7,2.5-4.1,4.4-7.1,5.8S701.5,332.1,697.9,332.1z M696.6,296.5
			c-2.3,0-4.2,0.8-5.6,2.3c-1.4,1.6-2.3,3.8-2.7,6.7h16.1v-0.9c-0.1-2.6-0.7-4.6-2.1-6S699.1,296.5,696.6,296.5z"/>
		<path id="XMLID_70_" d="M734.6,287.9v45.8c0,4.8-1.3,8.5-3.8,11.2c-2.5,2.7-6.2,4-11,4c-2,0-3.9-0.2-5.7-0.7V339
			c1.4,0.2,2.6,0.4,3.7,0.4c3.5,0,5.3-1.9,5.3-5.6v-45.8H734.6z M722.1,276.7c0-1.7,0.6-3.2,1.7-4.3s2.7-1.7,4.8-1.7
			s3.6,0.6,4.8,1.7s1.7,2.6,1.7,4.3c0,1.8-0.6,3.2-1.8,4.3c-1.2,1.1-2.8,1.7-4.7,1.7c-2,0-3.5-0.6-4.7-1.7
			C722.7,279.9,722.1,278.4,722.1,276.7z"/>
		<path id="XMLID_73_" d="M754.4,287.9l0.4,5c3.1-3.9,7.3-5.8,12.5-5.8c4.6,0,8,1.4,10.3,4.1c2.2,2.7,3.4,6.7,3.4,12.1v28h-11.6
			v-27.8c0-2.5-0.5-4.3-1.6-5.4c-1.1-1.1-2.8-1.7-5.3-1.7c-3.3,0-5.7,1.4-7.3,4.2v30.7h-11.6v-43.4H754.4z"/>
		<path id="XMLID_75_" d="M789.6,276.7c0-1.7,0.6-3.2,1.7-4.3s2.7-1.7,4.8-1.7c2,0,3.6,0.6,4.7,1.7c1.2,1.1,1.8,2.6,1.8,4.3
			c0,1.8-0.6,3.2-1.8,4.3s-2.8,1.7-4.7,1.7s-3.5-0.6-4.7-1.7S789.6,278.4,789.6,276.7z M801.9,331.3h-11.6v-43.4h11.6V331.3z"/>
		<path id="XMLID_78_" d="M822.1,287.9l0.4,5c3.1-3.9,7.3-5.8,12.5-5.8c4.6,0,8,1.4,10.3,4.1c2.2,2.7,3.4,6.7,3.4,12.1v28h-11.6
			v-27.8c0-2.5-0.5-4.3-1.6-5.4c-1.1-1.1-2.8-1.7-5.3-1.7c-3.3,0-5.7,1.4-7.3,4.2v30.7h-11.6v-43.4H822.1z"/>
		<path id="XMLID_80_" d="M855.8,309.3c0-6.7,1.6-12,4.8-16.1s7.4-6.1,12.8-6.1c4.8,0,8.5,1.6,11.1,4.9l0.5-4.1h10.5v42
			c0,3.8-0.9,7.1-2.6,9.9c-1.7,2.8-4.2,4.9-7.3,6.4c-3.1,1.5-6.8,2.2-11,2.2c-3.2,0-6.3-0.6-9.3-1.9c-3-1.3-5.3-2.9-6.9-4.9l5.1-7.1
			c2.9,3.2,6.4,4.9,10.5,4.9c3.1,0,5.5-0.8,7.2-2.5c1.7-1.6,2.6-4,2.6-7v-2.3c-2.7,3-6.2,4.5-10.5,4.5c-5.2,0-9.4-2-12.7-6.1
			c-3.2-4.1-4.8-9.5-4.8-16.2V309.3z M867.4,310.1c0,3.9,0.8,7,2.4,9.3c1.6,2.2,3.7,3.4,6.5,3.4c3.5,0,6.1-1.3,7.6-4v-18.3
			c-1.6-2.7-4.1-4-7.5-4c-2.8,0-5,1.1-6.6,3.4S867.4,305.6,867.4,310.1z"/>
	</g>
</g>
</svg>
